# xmcd
#
# Track frame offsets:
#	150
#	15150
#	35625
#	53775
#	71625
#	87900
#	103050
#	121575
#	138375
#	151725
#	167175
#	182175
#	202650
#	220800
#	238650
#	254925
#	270075
#	288600
#	305400
#
# Disc length: 4250 seconds
#
# Revision: 1
# Processed by: cddbd v1.5.2PL0 Copyright (c) Steve Scherf et al.
# Submitted via: audiograbber 1.83.01
#
DISCID=08109813
DTITLE=Various Artist - CPUNTRY HITS MONTHLY 0003
DYEAR=1900
DGENRE=COUNTRY CG+G
TTITLE0=griggs, andy - she's more
TTITLE1=twain, shania - rock this country!
TTITLE2=adkins, trace - don't lie
TTITLE3=andrews, jessica - unbreakable heart
TTITLE4=montgomery gentry - daddy won't sell the farm
TTITLE5=strait, george - best day, the
TTITLE6=jones, george - cold hard truth, the
TTITLE7=kershaw, sammy - me and maxine
TTITLE8=lawrence, tracy - lessons learned
TTITLE9=holy, steve - don't make me beg
TTITLE10=griggs, andy - she's more - vocals
TTITLE11=twain, shania - rock this country! - vocal
TTITLE12=adkins, trace - don't lie - vocal
TTITLE13=andrews, jessica - unbreakable heart - vocals
TTITLE14=montgomery gentry - daddy don't sell the farm - vocals
TTITLE15=strait, george - best day, the - vocals
TTITLE16=jones, george - cold hard truth, the - vocals
TTITLE17=kershaw, sammy - me and maxine - vocals
TTITLE18=lawrence, tracy - lessons learned - vocals
EXTD=
EXTT0=
EXTT1=
EXTT2=
EXTT3=
EXTT4=
EXTT5=
EXTT6=
EXTT7=
EXTT8=
EXTT9=
EXTT10=
EXTT11=
EXTT12=
EXTT13=
EXTT14=
EXTT15=
EXTT16=
EXTT17=
EXTT18=
PLAYORDER=
